<?xml version="1.0" encoding="utf-8"?>
<!-- Generator: Adobe Illustrator 19.1.0, SVG Export Plug-In . SVG Version: 6.00 Build 0)  -->
<svg version="1.1" id="Layer_1" xmlns="http://www.w3.org/2000/svg" xmlns:xlink="http://www.w3.org/1999/xlink" x="0px" y="0px"
	 viewBox="0 0 63.4 99.2" style="enable-background:new 0 0 63.4 99.2;" xml:space="preserve">
<style type="text/css">
	.st0{fill:none;stroke:#000000;stroke-width:3.0411;stroke-miterlimit:10;}
	.st1{stroke:#000000;stroke-width:0.7614;stroke-miterlimit:10;}
	.st2{stroke:#000000;stroke-width:0.7524;stroke-miterlimit:10;}
	.st3{stroke:#000000;stroke-width:0.8059;stroke-miterlimit:10;}
	.st4{stroke:#000000;stroke-width:0.7634;stroke-miterlimit:10;}
	.st5{stroke:#000000;stroke-width:0.5984;stroke-miterlimit:10;}
	.st6{stroke:#000000;stroke-width:0.6384;stroke-miterlimit:10;}
	.st7{stroke:#000000;stroke-width:0.6837;stroke-miterlimit:10;}
	.st8{stroke:#020001;stroke-miterlimit:10;}
</style>
<g id="Layer_1_1_">
	<g>
		<path d="M36.7,98.8L6,82.9c-0.2-0.1-0.3-0.3-0.3-0.6V18.5c0-0.6,0.4-1,1-1.1L38,14.1c0.4,0,0.7,0.3,0.7,0.6v82.8
			C39,99.8,37.7,99.3,36.7,98.8z M7.2,82.2l29.5,15.3c0.4,0.2,0.9-0.1,0.9-0.6V16c0-0.4-0.3-0.7-0.7-0.6L7.4,18.5
			c-0.3,0-0.6,0.3-0.6,0.6v62.6C6.8,81.9,7,82.1,7.2,82.2z"/>
	</g>
	<g>
		<path d="M37.6,98.4l0-83.9c0-0.2,0.2-0.3,0.4-0.3l25,2.5c0.2,0,0.2,0.2,0.2,0.4v69c0,0.4-0.2,0.7-0.5,0.8L38.7,99
			C37.6,99.5,37.6,98.9,37.6,98.4z M38.7,15.7v81.8c0,0.2,0.3,0.4,0.5,0.3L61.8,86c0.1-0.1,0.2-0.2,0.2-0.3V18.1
			c0-0.2-0.1-0.3-0.3-0.3l-22.6-2.4C38.9,15.3,38.7,15.5,38.7,15.7z"/>
	</g>
	<path class="st0" d="M27.9,62.4c0,5.8-3.5,9.2-7.5,7.7c-3.8-1.4-6.6-6.7-6.6-11.9s2.9-8.7,6.6-8C24.4,51.1,27.9,56.6,27.9,62.4z"/>
	<path class="st1" d="M18.4,56.3c0,0,0.3-1.8-1.8-1.7C14.6,54.6,18.4,56.3,18.4,56.3z"/>
	<path class="st2" d="M17.8,58.7c0,0-1.3-1.4-2.4,0.2C14.2,60.5,17.8,58.7,17.8,58.7z"/>
	<path class="st3" d="M18.6,61.1c0,0-1.5-1.2-2.5,0.8C15.1,63.9,18.6,61.1,18.6,61.1z"/>
	<path class="st4" d="M20.3,56.1c0,0,1.6-0.2,0.8-2.4C20.3,51.4,20.3,56.1,20.3,56.1z"/>
	<path class="st5" d="M23.4,64.4c0,0-0.4,1.9,0.8,2C25.4,66.4,23.4,64.4,23.4,64.4z"/>
	<g>
		<path d="M21.3,57.8c0,0,0.1,0,0.3,0c0.1,0,0.2,0,0.3,0.1c0.1,0,0.3,0.1,0.4,0.2c0.1,0,0.1,0.1,0.2,0.1c0.1,0.1,0.2,0.1,0.2,0.2
			c0.1,0.1,0.1,0.1,0.2,0.2c0.1,0.1,0.1,0.2,0.2,0.3c0.1,0.1,0.1,0.2,0.2,0.3c0.1,0.1,0.1,0.2,0.1,0.3c0.1,0.2,0.2,0.4,0.2,0.7
			l0.1,0.3c0,0.1,0,0.2,0,0.3c0,0.1,0,0.2,0,0.3c0,0.1,0,0.2-0.1,0.3c0,0.2-0.1,0.4-0.1,0.6c-0.1,0.2-0.1,0.3-0.2,0.5
			c-0.1,0.1-0.1,0.3-0.2,0.4C23.1,63,23,63.1,23,63.2c-0.1,0.2-0.2,0.2-0.2,0.2s0-0.1,0-0.3c0-0.1,0-0.2,0-0.3s0-0.3,0-0.4
			s0-0.3,0-0.5c0-0.2,0-0.3,0-0.5c0-0.1,0-0.2,0-0.3c0-0.1,0-0.2,0-0.3c0-0.1,0-0.2,0-0.3l0-0.3c0-0.2-0.1-0.4-0.1-0.5
			c0-0.1-0.1-0.2-0.1-0.3s-0.1-0.2-0.1-0.2c0-0.1-0.1-0.1-0.1-0.2c0-0.1-0.1-0.1-0.1-0.2c0-0.1-0.1-0.1-0.1-0.2S22,58.5,22,58.4
			c-0.1-0.1-0.2-0.2-0.3-0.3s-0.2-0.1-0.3-0.2C21.4,57.8,21.3,57.8,21.3,57.8z"/>
	</g>
	<path class="st6" d="M19.3,63.6c0,0-1.5,0.1-1.2,1.8C18.4,67,19.3,63.6,19.3,63.6z"/>
	<path class="st7" d="M21.2,64.4c0,0-1.5,0.4-0.8,2.2C21,68.4,21.2,64.4,21.2,64.4z"/>
	<path class="st5" d="M22.3,56.5c0,0,1.8-0.8,1.2-1.7C22.9,53.8,22.3,56.5,22.3,56.5z"/>
	<g>
		<path d="M30.6,62.7c0,0,0,0.3,0,0.7c0,0.1,0,0.3,0,0.4c0,0.1,0,0.3-0.1,0.5c0,0.3-0.1,0.7-0.2,1.2c-0.1,0.8-0.4,1.9-1,3
			c-0.5,1.1-1.4,2.2-2.7,3.1c-0.6,0.4-1.4,0.7-2.2,0.9c-0.8,0.1-1.7,0.1-2.5-0.1l-0.1,0h0h0c0,0-0.1,0,0,0l-0.1-0.1l-0.3-0.1
			c-0.2-0.1-0.4-0.1-0.6-0.2c-0.2-0.1-0.4-0.2-0.6-0.3c-0.2-0.1-0.4-0.2-0.6-0.3c-0.1-0.1-0.2-0.1-0.3-0.2l-0.3-0.2
			c-0.2-0.1-0.4-0.3-0.5-0.4c-0.3-0.3-0.7-0.6-1-1c-1.3-1.3-2.2-3-2.9-4.8c-0.7-1.8-1-3.8-1-5.7c0-1.9,0.4-3.9,1.3-5.6
			c0.4-0.8,1-1.7,1.7-2.3s1.5-1.1,2.4-1.4c0.4-0.1,0.9-0.2,1.3-0.3c0.2,0,0.4,0,0.7,0s0.4,0.1,0.7,0.1c0.1,0,0.2,0,0.3,0.1l0.3,0.1
			c0.2,0.1,0.4,0.1,0.6,0.2c0.2,0.1,0.4,0.2,0.6,0.3c0.1,0,0.2,0.1,0.3,0.1l0.3,0.1c1.5,0.8,2.6,2,3.5,3.2c0.9,1.2,1.5,2.4,1.9,3.5
			c0.2,0.6,0.4,1.1,0.5,1.6c0.1,0.3,0.1,0.5,0.2,0.7c0.1,0.2,0.1,0.4,0.1,0.7c0.1,0.4,0.1,0.8,0.2,1.2c0.1,0.3,0.1,0.6,0.1,0.8
			C30.6,62.4,30.6,62.7,30.6,62.7L30.6,62.7z M30,62.7c0,0,0-0.2,0-0.7c0-0.2,0-0.5-0.1-0.8c0-0.3-0.1-0.7-0.1-1.1
			c0-0.2-0.1-0.4-0.1-0.6c0-0.2-0.1-0.4-0.2-0.7c-0.1-0.5-0.3-1-0.5-1.5c-0.4-1.1-1-2.3-1.8-3.5c-0.8-1.2-1.9-2.3-3.3-3.1l-0.3-0.1
			c-0.1-0.1-0.2-0.1-0.3-0.1c-0.2-0.1-0.4-0.2-0.6-0.3c-0.2-0.1-0.4-0.1-0.6-0.2l-0.3-0.1c-0.1,0-0.2,0-0.3-0.1
			c-0.2,0-0.4-0.1-0.6-0.1s-0.4,0-0.6,0c-0.4,0.1-0.9,0.1-1.3,0.2c-0.8,0.3-1.6,0.7-2.3,1.3c-0.7,0.6-1.2,1.4-1.7,2.2
			c-0.4,0.8-0.7,1.7-0.9,2.7l-0.1,0.7l-0.1,0.7c0,0.1,0,0.2,0,0.4v0.4l0,0.7c0,1.9,0.4,3.8,1.1,5.6c0.7,1.7,1.7,3.4,2.9,4.6
			c0.3,0.3,0.6,0.6,1,0.9c0.2,0.1,0.3,0.3,0.5,0.4l0.3,0.2c0.1,0.1,0.2,0.1,0.3,0.2c0.2,0.1,0.4,0.2,0.6,0.3
			c0.2,0.1,0.4,0.2,0.6,0.3c0.2,0.1,0.4,0.1,0.6,0.2l0.3,0.1l0.1,0.1l0.1,0c0.8,0.2,1.6,0.1,2.3,0c0.7-0.2,1.4-0.4,2-0.8
			c0.6-0.4,1.1-0.8,1.5-1.3c0.1-0.1,0.2-0.3,0.3-0.4c0.1-0.1,0.2-0.3,0.3-0.4c0.1-0.1,0.2-0.3,0.2-0.4c0.1-0.1,0.1-0.3,0.2-0.4
			c0.1-0.1,0.1-0.3,0.2-0.4c0.1-0.1,0.1-0.3,0.1-0.4c0.1-0.3,0.2-0.5,0.3-0.7c0.1-0.2,0.1-0.5,0.2-0.7c0.1-0.2,0.1-0.4,0.1-0.6
			c0.1-0.4,0.1-0.8,0.2-1.1c0-0.2,0.1-0.3,0.1-0.4c0-0.1,0-0.3,0-0.4C29.9,62.9,30,62.6,30,62.7L30,62.7z"/>
	</g>
</g>
<g id="Layer_2">
	<g>
		<path class="st8" d="M62.8,16.8l-26.2-2.3l13.8-6.4L62.8,16.8C62.9,16.7,62.9,16.8,62.8,16.8z M40.5,14.3l20.4,2.2
			c0.3,0,0.4-0.3,0.2-0.5l-9.8-6.7c-0.3-0.2-0.6-0.2-0.9-0.1l-9.9,4.6C40.2,13.9,40.2,14.3,40.5,14.3z"/>
	</g>
</g>
<g id="Layer_6">
</g>
<g id="Layer_3">
	<g>
		<path d="M6.1,17.7l13.7-5.5c0,0,0,0,0,0l30.3-4.1c0.1,0,0.1,0.1,0,0.1l-11.7,6.4l0,0L6.2,17.8C6.1,17.8,6.1,17.7,6.1,17.7z
			 M20.1,13.1l-9.7,3.5c-0.1,0,0,0.1,0,0.1l27.1-2.7c0,0,0,0,0,0l8.8-4.4c0.1,0,0-0.1,0-0.1L20.1,13.1
			C20.1,13.1,20.1,13.1,20.1,13.1z"/>
	</g>
	<g>
		<g>
			<path d="M40.8,27.8c0.1-0.1,0.1-0.2,0.2-0.3c0.1-0.1,0.1-0.1,0.1-0.1c0.1-0.1,0.2-0.2,0.4-0.3c0.2-0.2,0.4-0.3,0.5-0.4
				c0.1-0.1,0.2-0.1,0.3,0c0,0,0,0.1,0.1,0.1c0,0.1,0.1,0.1,0.1,0.2c0,0.1,0.1,0.2,0.1,0.3c0.1,0.1,0.1,0.2,0.1,0.3
				c0.1,0.1,0.1,0.2,0.1,0.3s0.1,0.2,0.1,0.3c0,0.1,0.1,0.1,0.1,0.2c0,0.1,0,0.1,0,0.1c0,0,0,0,0,0.1s0,0-0.1,0.1
				c-0.1,0.1-0.2,0.2-0.3,0.3c-0.2,0.2-0.4,0.3-0.5,0.4c-0.1,0.1-0.2,0-0.3-0.1c0,0-0.1-0.1-0.1-0.2c-0.1-0.1-0.1-0.2-0.2-0.3
				c-0.1-0.1-0.1-0.2-0.2-0.3c-0.1-0.1-0.1-0.3-0.2-0.4c0,0.1-0.1,0.1-0.1,0.2C41,28.2,41,28.2,41,28.3c-0.1,0.1-0.1,0.1-0.2,0.2
				c-0.1,0.1-0.1,0.1-0.2,0.1c-0.1,0-0.1,0-0.1,0s-0.1,0-0.1,0v0c0,0,0-0.1,0.1-0.1c0-0.1,0.1-0.1,0.1-0.2
				C40.6,28.1,40.7,28,40.8,27.8z"/>
			<path d="M45,24.4c0.3-0.2,0.6-0.3,0.8-0.4c0.2-0.1,0.4-0.1,0.6-0.1c0.2,0,0.3,0.1,0.4,0.1c0.1,0.1,0.2,0.2,0.3,0.3
				c0,0.1,0.1,0.2,0.1,0.3c0,0.1,0,0.2,0,0.3c0,0.1-0.1,0.3-0.1,0.4c-0.1,0.1-0.2,0.3-0.3,0.4c-0.1,0.1-0.3,0.3-0.5,0.4
				c-0.2,0.2-0.4,0.3-0.7,0.5c-0.3,0.2-0.6,0.3-0.8,0.4c-0.2,0.1-0.4,0.1-0.6,0.2c-0.2,0-0.3,0-0.4-0.1c-0.1-0.1-0.2-0.1-0.3-0.3
				c-0.1-0.1-0.1-0.3-0.1-0.5c0-0.2,0-0.4,0.1-0.6c0.1-0.2,0.3-0.5,0.5-0.7C44.2,24.9,44.5,24.7,45,24.4z M45,24.9
				c-0.1,0.1-0.2,0.2-0.3,0.2c-0.1,0.1-0.1,0.2-0.2,0.3s-0.1,0.1-0.1,0.2s0,0.1,0,0.2c0,0.1,0,0.1,0,0.2c0,0.1,0,0.1,0.1,0.1
				c0.1,0.2,0.2,0.3,0.3,0.3s0.3,0,0.5-0.1c0.2-0.1,0.3-0.2,0.3-0.3c0.1-0.1,0.1-0.2,0.1-0.3s0-0.2,0-0.3c0-0.1,0-0.2-0.1-0.2
				c-0.1-0.1-0.2-0.2-0.3-0.3C45.4,24.8,45.2,24.8,45,24.9z"/>
			<path d="M49.8,22.4c0.3-0.1,0.6-0.1,0.9-0.1s0.4,0,0.6,0.1c0.2,0.1,0.3,0.1,0.4,0.2c0.1,0.1,0.1,0.2,0.2,0.4c0,0.1,0,0.2,0,0.3
				c0,0.1,0,0.2-0.1,0.3c-0.1,0.1-0.1,0.2-0.2,0.3c-0.1,0.1-0.2,0.2-0.4,0.3c-0.2,0.1-0.3,0.2-0.6,0.3c-0.2,0.1-0.5,0.2-0.8,0.3
				c-0.3,0.1-0.6,0.2-0.8,0.2c-0.2,0-0.4,0-0.6,0c-0.2,0-0.3-0.1-0.4-0.2c-0.1-0.1-0.2-0.2-0.2-0.3c-0.1-0.1-0.1-0.3-0.1-0.5
				c0-0.2,0.1-0.4,0.3-0.5c0.1-0.2,0.4-0.4,0.7-0.6C48.9,22.7,49.3,22.5,49.8,22.4z M49.8,22.9c-0.1,0-0.3,0.1-0.3,0.1
				c-0.1,0.1-0.2,0.1-0.2,0.2c-0.1,0.1-0.1,0.1-0.1,0.2c0,0.1-0.1,0.1-0.1,0.2c0,0.1,0,0.1,0,0.2c0,0.1,0,0.1,0,0.1
				c0.1,0.2,0.1,0.3,0.3,0.3c0.1,0.1,0.3,0.1,0.5,0c0.2-0.1,0.3-0.1,0.4-0.2c0.1-0.1,0.2-0.2,0.2-0.3c0.1-0.1,0.1-0.2,0.1-0.3
				c0-0.1,0-0.2,0-0.2c0-0.1-0.1-0.3-0.2-0.3C50.1,22.8,50,22.8,49.8,22.9z"/>
			<path d="M53.6,21.8c0.4,0,0.6,0,0.8,0.1s0.2,0.2,0.2,0.3c0,0.1,0,0.1-0.1,0.2c0,0.1-0.1,0.1-0.2,0.2c-0.1,0.1-0.2,0.1-0.4,0.2
				c-0.2,0.1-0.4,0.1-0.6,0.1c-0.2,0-0.4,0-0.5,0c-0.1,0-0.2,0-0.3-0.1c-0.1,0-0.1-0.1-0.2-0.1c0-0.1-0.1-0.1-0.1-0.2
				c0-0.1,0-0.1,0-0.2c0-0.1,0.1-0.1,0.2-0.2c0.1-0.1,0.2-0.1,0.4-0.2C53.2,21.8,53.4,21.8,53.6,21.8z M53.5,24c-0.1,0-0.2,0-0.2,0
				c0,0,0-0.1,0-0.1c0,0,0-0.1,0-0.1c0,0,0.1-0.1,0.1-0.1c0,0,0.1-0.1,0.3-0.2c0.1-0.1,0.3-0.3,0.6-0.4c0.3-0.2,0.5-0.4,0.8-0.6
				c0.3-0.2,0.7-0.4,1-0.6c0.1,0,0.1-0.1,0.2-0.1c0.1,0,0.1,0,0.2,0c0.1,0,0.2,0,0.3,0.1c0,0,0.1,0.1,0,0.1c0,0,0,0.1-0.1,0.1
				c0,0-0.1,0.1-0.1,0.1c0,0-0.1,0.1-0.2,0.1c-0.1,0.1-0.2,0.1-0.4,0.2c-0.1,0.1-0.3,0.2-0.5,0.3c-0.2,0.1-0.4,0.2-0.6,0.4
				c-0.2,0.1-0.4,0.3-0.6,0.4c-0.2,0.1-0.4,0.3-0.6,0.5c0,0-0.1,0.1-0.2,0.1C53.6,24.1,53.6,24,53.5,24z M53.6,22
				c-0.1,0-0.2,0-0.2,0.1c-0.1,0-0.1,0.1-0.1,0.1s-0.1,0.1-0.1,0.1c0,0,0,0.1,0,0.1c0,0.1,0.1,0.2,0.3,0.2c0.1,0,0.1,0,0.2-0.1
				c0.1,0,0.1-0.1,0.1-0.1c0,0,0.1-0.1,0.1-0.1s0-0.1,0-0.1c0-0.1,0-0.1-0.1-0.1C53.7,22.1,53.7,22,53.6,22z M56.7,23.1
				c0.3,0,0.6,0.1,0.7,0.2c0.1,0.1,0.2,0.2,0.2,0.3c0,0.1,0,0.1-0.1,0.2c0,0.1-0.1,0.1-0.2,0.2C57.2,24,57,24,56.9,24
				c-0.2,0-0.4,0-0.6,0c-0.2,0-0.3,0-0.4-0.1s-0.2-0.1-0.3-0.1c-0.1-0.1-0.1-0.1-0.1-0.1s-0.1-0.1,0-0.2c0-0.1,0-0.1,0.1-0.2
				c0.1-0.1,0.1-0.1,0.2-0.2c0.1-0.1,0.2-0.1,0.4-0.1C56.2,23,56.4,23,56.7,23.1z M56.6,23.3c-0.1,0-0.2,0-0.2,0
				c-0.1,0-0.1,0-0.1,0.1c0,0-0.1,0.1-0.1,0.1c0,0,0,0.1,0,0.1c0,0.1,0.1,0.2,0.3,0.2c0.1,0,0.1,0,0.2,0c0.1,0,0.1-0.1,0.1-0.1
				c0,0,0.1-0.1,0.1-0.1c0-0.1,0-0.1,0-0.1c0-0.1,0-0.1-0.1-0.1C56.7,23.3,56.7,23.3,56.6,23.3z"/>
			<path d="M44.5,30.9c0.2,0.3,0.3,0.4,0.4,0.7c0,0,0,0,0,0c0,0,0,0,0,0.1c-0.1,0.1-0.1,0.1-0.3,0.3c-0.2,0.2-0.3,0.3-0.4,0.3
				c-0.1,0-0.2,0-0.2,0c0,0-0.1-0.1-0.1-0.2c-0.1-0.1-0.1-0.2-0.2-0.3c-0.1-0.1-0.1-0.2-0.2-0.3c-0.1-0.1-0.1-0.2-0.2-0.3
				c-0.1-0.1-0.1-0.2-0.2-0.3c-0.1-0.1-0.1-0.1-0.1-0.2c0,0,0-0.1,0.1-0.1c0.7-0.7,1.1-1,1.9-1.6c0,0,0.1,0,0.1,0c0,0,0,0,0.1,0
				c0,0.1,0.1,0.1,0.1,0.2c0,0.1,0,0.1,0,0.2c0,0.1-0.1,0.2-0.3,0.3c-0.3,0.2-0.4,0.4-0.7,0.6c0.1,0.1,0.1,0.2,0.2,0.4
				c0.3-0.3,0.4-0.4,0.7-0.6c0,0,0,0,0.1,0c0,0,0,0,0.1,0c0,0.1,0.1,0.1,0.1,0.2c0,0.1,0,0.1,0,0.2c0,0.1-0.1,0.2-0.3,0.3
				C44.8,30.6,44.7,30.7,44.5,30.9z"/>
			<path d="M46.9,30.1c-0.2,0.1-0.3,0.2-0.4,0.2c-0.1,0-0.2,0-0.2-0.1c0,0,0-0.1-0.1-0.1s-0.1-0.1-0.1-0.2c0-0.1-0.1-0.2-0.1-0.3
				c0-0.1-0.1-0.2-0.1-0.3c-0.1-0.2-0.1-0.3-0.2-0.5c-0.1-0.1-0.1-0.2-0.1-0.3c0-0.1-0.1-0.1-0.1-0.2c0,0,0-0.1,0.1-0.1
				c0.1-0.1,0.2-0.2,0.4-0.3s0.3-0.2,0.4-0.3c0.1-0.1,0.2-0.1,0.3-0.2c0.1-0.1,0.2-0.1,0.3-0.2c0.3-0.1,0.5-0.3,0.7-0.3
				c0.2-0.1,0.4-0.1,0.5-0.1s0.3,0,0.3,0.1c0.1,0.1,0.1,0.1,0.2,0.2c0.1,0.1,0.1,0.3,0,0.5c-0.1,0.2-0.2,0.3-0.4,0.5
				c0.3,0,0.4,0.1,0.6,0.1c0.1,0,0.2,0.1,0.3,0.1c0.1,0,0.1,0,0.1,0.1c0,0,0,0,0,0.1c0,0-0.1,0.1-0.1,0.1c-0.1,0.1-0.1,0.1-0.2,0.2
				c-0.1,0.1-0.2,0.1-0.3,0.2c-0.1,0.1-0.2,0.1-0.3,0.1c-0.1,0-0.2,0-0.3,0c-0.1,0-0.2-0.1-0.3-0.1c-0.1-0.1-0.2-0.1-0.3-0.2
				c-0.1,0.1-0.3,0.1-0.3,0.2c0,0.1,0.1,0.2,0.1,0.3s0.1,0.1,0.1,0.2c0,0.1,0,0.1,0.1,0.1c0,0,0,0.1,0,0.1c0,0,0,0,0,0.1
				c0,0,0,0-0.1,0.1C47,30,47,30.1,46.9,30.1z M46.9,28c-0.1,0-0.1,0.1-0.1,0.1c-0.1,0-0.1,0.1-0.2,0.1c0,0.1,0.1,0.1,0.1,0.3
				c0,0.1,0.1,0.2,0.1,0.3c0.1-0.1,0.3-0.1,0.3-0.2c0.1-0.1,0.2-0.1,0.3-0.2c0.1-0.1,0.1-0.1,0.1-0.2c0-0.1,0-0.1,0-0.1
				c0-0.1,0-0.1,0-0.1c0-0.1-0.1-0.1-0.2-0.1C47.3,27.9,47.1,27.9,46.9,28z"/>
			<path d="M50.1,28.5c-0.2,0.1-0.4,0.1-0.4,0.1c-0.1,0-0.2-0.1-0.2-0.1c0,0,0-0.1-0.1-0.2c0-0.1-0.1-0.2-0.1-0.3
				c0-0.1-0.1-0.3-0.1-0.4c0-0.1-0.1-0.3-0.1-0.4c0-0.1,0-0.2-0.1-0.3c0-0.1,0-0.2-0.1-0.2c0,0,0-0.1,0.1-0.1
				c0.9-0.3,1.3-0.4,2.2-0.6c0,0,0.1,0,0.1,0s0,0,0,0c0,0.1,0,0.1,0,0.2c0,0.1,0,0.1-0.1,0.2c-0.1,0.1-0.2,0.1-0.4,0.1
				c-0.3,0.1-0.5,0.1-0.8,0.2c0,0.2,0,0.3,0.1,0.4c0.3-0.1,0.5-0.1,0.8-0.2c0,0,0.1,0,0.1,0s0,0,0,0c0,0.1,0,0.1,0,0.2
				c0,0.1,0,0.1-0.1,0.2c-0.1,0.1-0.2,0.1-0.3,0.1c-0.2,0.1-0.3,0.1-0.5,0.1c0,0.2,0,0.3,0.1,0.4c0.5-0.2,0.8-0.2,1.3-0.3
				c0,0,0.1,0,0.1,0c0,0,0,0,0,0c0,0.1,0,0.1,0,0.2c0,0.1,0,0.1-0.1,0.2c-0.1,0.1-0.2,0.1-0.3,0.1C50.9,28.2,50.7,28.3,50.1,28.5z"
				/>
			<path d="M53.8,25.5c0.4,0,0.7,0,0.9,0.1c0.2,0.1,0.3,0.2,0.3,0.3c0,0.1-0.1,0.2-0.2,0.3c-0.1,0.1-0.3,0.1-0.6,0.1
				c-0.1,0-0.1,0-0.1,0c0,0,0,0,0-0.1s0-0.1,0-0.1c0,0,0-0.1-0.1-0.1c0,0-0.1-0.1-0.1-0.1c-0.1,0-0.1,0-0.2,0c-0.1,0-0.3,0-0.4,0.1
				c-0.1,0.1-0.1,0.1-0.1,0.2c0,0.1,0.1,0.1,0.1,0.1c0.1,0,0.2,0.1,0.3,0.1c0.1,0,0.3,0,0.4,0.1c0.1,0,0.3,0.1,0.4,0.1
				c0.1,0.1,0.2,0.1,0.3,0.2c0.1,0.1,0.1,0.2,0.1,0.3c0,0.1,0,0.2-0.1,0.3s-0.1,0.1-0.3,0.2c-0.1,0.1-0.3,0.1-0.4,0.1
				c-0.2,0-0.4,0.1-0.6,0.1c-0.2,0-0.4,0-0.5,0c-0.2,0-0.3,0-0.4,0c-0.1,0-0.2,0-0.3-0.1c-0.1,0-0.1-0.1-0.1-0.1c0-0.1,0-0.2,0-0.3
				c0-0.1,0.1-0.1,0.1-0.1c0.1,0,0.1,0,0.2,0c0.1,0,0.1,0,0.2,0.1c0.1,0,0.2,0,0.3,0.1c0.1,0,0.2,0,0.4,0c0.1,0,0.1,0,0.2,0
				c0.1,0,0.1,0,0.1,0c0,0,0.1,0,0.1-0.1c0,0,0-0.1,0-0.1c0-0.1-0.1-0.1-0.1-0.1c-0.1,0-0.2-0.1-0.3-0.1c-0.1,0-0.3,0-0.4,0
				s-0.3,0-0.4-0.1c-0.1,0-0.2-0.1-0.3-0.1c-0.1-0.1-0.1-0.1-0.2-0.3c0-0.1,0-0.3,0.1-0.4c0.1-0.1,0.2-0.2,0.4-0.3
				c0.2-0.1,0.3-0.1,0.5-0.2C53.4,25.5,53.6,25.5,53.8,25.5z"/>
			<path d="M58.1,28c-0.2-0.1-0.4-0.1-0.4-0.2c-0.1-0.1-0.1-0.1-0.1-0.2c0-0.1,0-0.1,0.1-0.2c0-0.1,0.1-0.2,0.1-0.4
				c-0.4-0.1-0.6-0.1-1.1-0.2c-0.1,0.3-0.1,0.5-0.2,0.8c0,0,0,0,0,0c0,0,0,0-0.1,0c-0.1,0-0.2,0-0.3,0c-0.2,0-0.4-0.1-0.4-0.1
				c-0.1-0.1-0.1-0.1-0.1-0.2c0,0,0-0.1,0-0.2c0-0.1,0-0.2,0.1-0.3c0-0.1,0.1-0.3,0.1-0.4c0-0.1,0.1-0.3,0.1-0.4
				c0-0.1,0.1-0.2,0.1-0.3c0-0.1,0-0.2,0-0.2c0,0,0-0.1,0.1,0c0.1,0,0.2,0,0.4,0c0.3,0,0.4,0.1,0.5,0.1c0.1,0.1,0.1,0.1,0.1,0.3
				c0,0,0,0.1,0,0.2c0,0.1-0.1,0.2-0.1,0.4c0.4,0.1,0.7,0.1,1.1,0.2c0-0.1,0.1-0.2,0.1-0.3s0.1-0.2,0.1-0.2c0-0.1,0.1-0.1,0.1-0.2
				c0-0.1,0-0.1,0-0.1s0,0,0.1,0c0.1,0,0.2,0.1,0.3,0.1c0.3,0.1,0.4,0.1,0.5,0.2c0.1,0.1,0.1,0.2,0.1,0.3c0,0,0,0,0,0.1
				c0,0.1-0.1,0.1-0.1,0.2c0,0.1-0.1,0.2-0.1,0.3c0,0.1-0.1,0.2-0.1,0.3c0,0.1-0.1,0.2-0.1,0.3c0,0.1-0.1,0.2-0.1,0.3
				c0,0.1-0.1,0.1-0.1,0.2c0,0.1,0,0.1,0,0.1c0,0,0,0,0,0s0,0-0.1,0C58.3,28.1,58.2,28.1,58.1,28z"/>
			<path d="M47,34.7c-0.1,0.1-0.3,0.2-0.3,0.2c-0.1,0-0.2,0-0.2-0.1c0,0,0-0.1-0.1-0.1c0-0.1-0.1-0.1-0.1-0.2
				c-0.1-0.1-0.1-0.1-0.1-0.2c-0.1-0.1-0.1-0.2-0.2-0.3c-0.1-0.2-0.2-0.3-0.3-0.4c-0.1-0.1-0.1-0.2-0.2-0.3
				c-0.1-0.1-0.1-0.1-0.1-0.1c0,0,0-0.1,0-0.1c0.1-0.1,0.2-0.2,0.3-0.3s0.2-0.2,0.3-0.3c0.1-0.1,0.2-0.1,0.2-0.2
				c0.1-0.1,0.1-0.1,0.2-0.2c0.2-0.2,0.4-0.3,0.5-0.3c0.1-0.1,0.3-0.1,0.4-0.1c0.1,0,0.2,0,0.3,0.1c0.1,0.1,0.1,0.1,0.2,0.2
				c0.1,0.1,0.1,0.3,0.1,0.4c0,0.2-0.1,0.3-0.3,0.5c0.2,0,0.3,0,0.5,0.1c0.1,0,0.2,0,0.2,0c0.1,0,0.1,0,0.1,0s0,0,0,0.1
				c0,0,0,0.1-0.1,0.1c0,0.1-0.1,0.1-0.1,0.2c-0.1,0.1-0.1,0.1-0.2,0.2c-0.1,0.1-0.2,0.1-0.3,0.1s-0.2,0-0.3,0
				c-0.1,0-0.2-0.1-0.3-0.1c-0.1-0.1-0.2-0.1-0.3-0.1c-0.1,0.1-0.2,0.1-0.2,0.2c0.1,0.1,0.1,0.1,0.1,0.2c0.1,0.1,0.1,0.1,0.1,0.2
				c0,0.1,0.1,0.1,0.1,0.1c0,0,0,0.1,0,0.1v0c0,0,0,0,0,0.1C47.1,34.6,47,34.6,47,34.7z M46.5,32.8c0,0-0.1,0.1-0.1,0.1
				c0,0-0.1,0.1-0.1,0.1c0,0.1,0.1,0.1,0.1,0.2c0.1,0.1,0.1,0.2,0.2,0.3c0.1-0.1,0.2-0.1,0.3-0.2c0.1-0.1,0.1-0.1,0.2-0.2
				c0-0.1,0.1-0.1,0.1-0.2c0-0.1,0-0.1,0-0.1s0-0.1-0.1-0.1c-0.1-0.1-0.1-0.1-0.2-0.1C46.8,32.6,46.7,32.6,46.5,32.8z"/>
			<path d="M49.3,30.5c0.1,0,0.1-0.1,0.2-0.1c0.1,0,0.1,0,0.2,0c0.1,0,0.1,0,0.1,0.1c0,0,0.1,0.1,0.1,0.1c0.3,0.3,0.4,0.5,0.6,0.6
				c0.1,0.2,0.3,0.3,0.3,0.4c0.1,0.1,0.1,0.2,0.2,0.3c0,0.1,0.1,0.1,0.1,0.1s0,0.1,0,0.1c0,0-0.1,0-0.1,0.1c-0.1,0-0.1,0.1-0.2,0.1
				c-0.1,0.1-0.2,0.1-0.3,0.1c-0.1,0-0.1,0-0.2,0c-0.1,0-0.1-0.1-0.1-0.1c-0.1-0.1-0.1-0.1-0.1-0.2c-0.3,0.1-0.4,0.2-0.7,0.4
				c0,0.2,0,0.3,0.1,0.4c0,0,0,0.1-0.1,0.1c-0.1,0.1-0.1,0.1-0.2,0.1C49,33,49,33,48.9,33c-0.1,0-0.1,0-0.1,0.1c-0.1,0-0.1,0-0.1,0
				c0,0-0.1,0-0.1-0.1c0,0,0-0.1-0.1-0.2c0-0.1,0-0.3,0-0.4c0-0.1,0-0.3,0-0.5s0-0.3,0.1-0.5c0-0.2,0-0.3,0.1-0.4
				c0-0.1,0.1-0.2,0.1-0.3c0,0,0-0.1,0.1-0.1c0,0,0.1,0,0.1-0.1C49.1,30.6,49.1,30.5,49.3,30.5z M49.3,31.9c0.2-0.1,0.3-0.2,0.5-0.3
				c-0.2-0.3-0.3-0.4-0.5-0.6C49.3,31.3,49.3,31.5,49.3,31.9z"/>
			<path d="M54,31c0-0.1,0.1-0.2,0.1-0.3s0-0.2,0.1-0.2s0-0.1,0.1-0.2c0-0.1,0-0.1,0.1-0.2c0-0.1,0-0.2,0.1-0.3
				c0-0.1,0.1-0.3,0.1-0.4c0,0,0-0.1,0.1-0.1c0,0,0.1,0,0.2,0c0,0,0.1,0,0.2,0c0.1,0,0.1,0,0.2,0c0.1,0,0.1,0,0.2,0.1
				c0.1,0,0.1,0.1,0.1,0.1c0,0,0,0.1,0,0.1c0,0.1-0.1,0.1-0.1,0.2S55.1,30,55,30.1c-0.1,0.1-0.1,0.2-0.1,0.3
				c-0.1,0.1-0.1,0.2-0.1,0.3c-0.1,0.1-0.1,0.2-0.1,0.3c0,0.1-0.1,0.1-0.1,0.2c0,0.1-0.1,0.1-0.1,0.1c0,0,0,0-0.1,0.1
				c0,0-0.1,0-0.1,0c-0.2,0-0.3,0-0.4,0c-0.1,0-0.1,0-0.2,0c-0.1,0-0.1,0-0.1-0.1c0,0-0.1-0.1-0.1-0.1c0,0,0-0.1-0.1-0.1
				c-0.1-0.5-0.2-0.8-0.4-1.3c0,0.1,0,0.2,0,0.3c0,0.1,0,0.2,0,0.4c0,0.1,0,0.3,0,0.4c0,0.1,0,0.2,0,0.3c0,0.1,0,0.2,0,0.3
				c0,0.1,0,0.1,0,0.1c0,0,0,0.1-0.1,0.1c0,0-0.1,0-0.1,0c-0.2,0-0.3,0.1-0.4,0.1c-0.1,0-0.1,0-0.2,0c-0.1,0-0.1,0-0.1-0.1
				c0,0-0.1-0.1-0.1-0.1c0,0-0.1-0.1-0.1-0.1c-0.2-0.3-0.4-0.5-0.5-0.7c-0.1-0.2-0.3-0.3-0.3-0.4c-0.1-0.1-0.1-0.2-0.2-0.3
				c0-0.1-0.1-0.1-0.1-0.1c0,0,0-0.1,0-0.1c0,0,0.1-0.1,0.2-0.1c0.1-0.1,0.3-0.1,0.4-0.1c0.1,0,0.2,0,0.3,0c0.1,0,0.1,0,0.2,0.1
				c0,0,0.1,0.1,0.1,0.1v0c0,0,0,0,0,0.1c0,0,0,0.1,0.1,0.1c0,0.1,0.1,0.1,0.1,0.2s0.1,0.2,0.1,0.4c0.1,0.1,0.1,0.3,0.2,0.5
				c0-0.1,0-0.2,0-0.3c0-0.1,0-0.1,0-0.2c0-0.1,0-0.1,0-0.2s0-0.1,0-0.2c0-0.1,0-0.2,0-0.3c0-0.1,0-0.3,0-0.5c0,0,0,0,0-0.1
				c0,0,0.1,0,0.1,0s0.1,0,0.1,0c0.1,0,0.1,0,0.1,0c0.1,0,0.3,0,0.4,0c0.1,0,0.2,0,0.3,0c0.1,0,0.1,0,0.2,0.1c0,0,0.1,0.1,0.1,0.1
				c0,0,0,0.1,0.1,0.1c0,0.1,0,0.1,0.1,0.2c0,0.1,0.1,0.2,0.1,0.4C53.9,30.5,53.9,30.7,54,31z"/>
			<path d="M50.2,36.7c-0.1,0.1-0.1,0.1-0.2,0.1s-0.1,0-0.1,0c-0.2-0.1-0.4-0.2-0.6-0.3c-0.2-0.1-0.4-0.2-0.6-0.2
				c0.1,0.2,0.3,0.3,0.4,0.5s0.3,0.3,0.4,0.5c0,0,0,0.1,0,0.1c-0.1,0.1-0.1,0.1-0.1,0.1c-0.1,0.1-0.2,0.1-0.3,0.1
				c-0.1,0-0.1,0-0.2-0.1c0,0,0-0.1-0.1-0.1c0-0.1-0.1-0.1-0.1-0.2c-0.1-0.1-0.1-0.1-0.2-0.2c-0.1-0.1-0.1-0.1-0.2-0.2
				c-0.1-0.1-0.2-0.2-0.2-0.3C48,36.5,48,36.4,48,36.4c0-0.1-0.1-0.1-0.1-0.1c0,0-0.1-0.1-0.1-0.1c0,0,0-0.1,0-0.1
				c0.1-0.1,0.1-0.1,0.3-0.3c0.1-0.1,0.1-0.1,0.2-0.1c0.1,0,0.1-0.1,0.1-0.1s0.1,0,0.1,0c0,0,0.1,0,0.1,0.1c0.1,0.1,0.2,0.1,0.3,0.1
				c0.1,0.1,0.2,0.1,0.2,0.1c0.1,0,0.1,0.1,0.2,0.1c0.1,0,0.1,0.1,0.1,0.1c0,0,0.1,0,0.1,0.1c0,0,0.1,0,0.1,0.1
				c-0.1-0.1-0.1-0.2-0.2-0.3s-0.1-0.2-0.2-0.3c-0.1-0.1-0.1-0.2-0.2-0.3C49,35.2,49,35.1,48.9,35c0,0,0,0,0-0.1
				c0.1-0.1,0.1-0.1,0.2-0.1c0.1-0.1,0.1-0.1,0.2-0.1s0.1,0,0.1,0c0,0,0.1,0,0.1,0.1c0,0,0.1,0.1,0.1,0.1s0.1,0.1,0.1,0.2
				c0.1,0.1,0.1,0.2,0.1,0.3c0.1,0.1,0.1,0.3,0.2,0.4c0.1,0.1,0.1,0.3,0.2,0.4c0.1,0.1,0.1,0.2,0.1,0.3c0,0.1,0.1,0.1,0.1,0.1v0
				c0,0,0,0,0,0C50.3,36.6,50.3,36.6,50.2,36.7z"/>
			<path d="M51,33.7c0.1,0,0.1,0,0.2,0s0.1,0,0.1,0c0.1,0,0.1,0.1,0.1,0.1c0,0,0.1,0.1,0.1,0.1c0.2,0.3,0.4,0.5,0.5,0.7
				c0.1,0.2,0.2,0.3,0.3,0.4c0.1,0.1,0.1,0.2,0.1,0.3c0,0.1,0.1,0.1,0.1,0.1c0,0,0,0.1,0,0.1c0,0,0,0-0.1,0c-0.1,0-0.1,0-0.1,0.1
				c-0.1,0-0.2,0.1-0.2,0.1c-0.1,0-0.1,0-0.1,0s-0.1-0.1-0.1-0.1c0-0.1-0.1-0.1-0.1-0.2c-0.2,0.1-0.3,0.1-0.5,0.3
				c0,0.2,0.1,0.3,0.1,0.4c0,0,0,0.1-0.1,0.1c-0.1,0-0.1,0.1-0.1,0.1c0,0-0.1,0-0.1,0.1c0,0-0.1,0-0.1,0c-0.1,0-0.1,0-0.1,0
				c0,0-0.1,0-0.1-0.1c0,0-0.1-0.1-0.1-0.2c0-0.1,0-0.2-0.1-0.4c0-0.1,0-0.3,0-0.4s0-0.3,0-0.4c0-0.1,0-0.3,0-0.4c0-0.1,0-0.2,0-0.3
				c0,0,0-0.1,0-0.1c0,0,0.1,0,0.1-0.1C50.8,33.8,50.9,33.8,51,33.7z M51,35.1c0.1-0.1,0.2-0.1,0.4-0.2c-0.2-0.3-0.3-0.4-0.4-0.7
				C51,34.6,51,34.8,51,35.1z"/>
			<path d="M53.2,33.5c0.1,0.7,0.1,1,0.1,1.7c0,0,0,0.1,0,0.1c-0.1,0-0.1,0-0.2,0c-0.1,0-0.2,0-0.3,0c-0.1,0-0.1-0.1-0.1-0.2
				c0,0,0-0.1,0-0.1c0-0.1,0-0.1,0-0.2s0-0.2,0-0.3c0-0.1,0-0.2,0-0.3s0-0.2,0-0.3c0-0.1,0-0.2,0-0.3c-0.2,0.1-0.4,0.1-0.6,0.2
				c0,0-0.1,0-0.1,0c0-0.1,0-0.1,0-0.2c0,0,0-0.1,0-0.1c0,0,0-0.1,0-0.1c0,0,0-0.1,0.1-0.1c0,0,0.1,0,0.1-0.1c0.7-0.2,1-0.3,1.7-0.3
				c0,0,0,0,0.1,0l0,0c0,0.1,0,0.1,0,0.2c0,0.1,0,0.1-0.1,0.2c0,0-0.1,0.1-0.2,0.1C53.5,33.5,53.4,33.5,53.2,33.5z"/>
			<path d="M56,34.2c0,0.1,0,0.1-0.1,0.2c0,0.1-0.1,0.1-0.1,0.2s-0.1,0.1-0.1,0.2c-0.1,0.1-0.1,0.1-0.2,0.2
				c-0.1,0.1-0.2,0.1-0.3,0.1c-0.1,0-0.2,0-0.3,0c-0.1,0-0.3,0-0.3-0.1c-0.1,0-0.2-0.1-0.3-0.1c-0.1-0.1-0.1-0.1-0.1-0.2
				c0-0.1-0.1-0.2-0.1-0.3c0-0.1,0-0.1,0-0.2c0-0.1,0-0.2,0-0.3c0-0.1,0-0.2,0-0.3c0-0.1,0-0.2,0-0.3c0-0.1,0-0.2,0-0.3
				c0-0.1,0-0.1,0-0.2c0,0,0-0.1,0-0.1c0,0,0,0,0.1,0c0.1,0,0.1,0,0.2,0c0.2,0,0.3,0,0.3,0.1c0.1,0.1,0.1,0.1,0.1,0.2c0,0,0,0,0,0.1
				c0,0.1,0,0.1,0,0.2c0,0.1,0,0.1,0,0.2c0,0.1,0,0.2,0,0.2c0,0.1,0,0.1,0,0.2c0,0.1,0,0.1,0,0.1c0,0,0,0.1,0,0.1c0,0.1,0,0.1,0,0.1
				c0,0,0,0.1,0.1,0.1c0,0,0.1,0,0.1,0.1c0.1,0,0.1,0,0.2-0.1c0.1-0.1,0.1-0.1,0.1-0.2c0-0.1,0.1-0.1,0.1-0.2c0-0.1,0-0.1,0-0.2
				c0-0.1,0-0.2,0.1-0.3s0-0.2,0.1-0.3c0-0.1,0-0.2,0-0.3c0-0.1,0-0.1,0-0.1c0,0,0-0.1,0-0.1c0,0,0,0,0.1,0c0.1,0,0.1,0,0.2,0
				c0.1,0,0.2,0,0.2,0c0.1,0,0.1,0,0.1,0.1c0,0,0,0.1,0,0.1s0,0.1,0,0.1c0,0,0,0.1,0,0.1c0,0.1,0,0.2-0.1,0.3c0,0.1,0,0.2-0.1,0.3
				C56.1,34,56.1,34.1,56,34.2z"/>
			<path d="M56.6,35.3c-0.1,0-0.2-0.1-0.2-0.1c0-0.1-0.1-0.1,0-0.2c0,0,0-0.1,0-0.1c0-0.1,0-0.1,0.1-0.2c0-0.1,0-0.2,0.1-0.3
				c0-0.1,0.1-0.2,0.1-0.3c0.1-0.2,0.1-0.4,0.1-0.5c0-0.1,0.1-0.2,0.1-0.3c0-0.1,0-0.1,0.1-0.2c0,0,0,0,0.1,0c0.1,0,0.2,0,0.3,0.1
				c0.1,0,0.2,0,0.3,0.1s0.1,0,0.2,0.1c0.1,0,0.1,0,0.2,0.1c0.2,0.1,0.3,0.1,0.4,0.2c0.1,0.1,0.2,0.1,0.2,0.2
				c0.1,0.1,0.1,0.2,0.1,0.3c0,0.1,0,0.2-0.1,0.3c-0.1,0.1-0.1,0.3-0.3,0.4c-0.1,0.1-0.3,0.1-0.4,0.1c0.1,0.2,0.1,0.3,0.2,0.4
				c0,0.1,0.1,0.1,0.1,0.2s0,0.1,0,0.1c0,0,0,0-0.1,0.1c0,0-0.1,0-0.1,0.1c0,0-0.1,0-0.1,0s-0.1,0-0.2,0c-0.1,0-0.1-0.1-0.1-0.1
				c0-0.1-0.1-0.1-0.1-0.2c0-0.1,0-0.2,0-0.3c0-0.1,0-0.2,0-0.3c-0.1,0-0.1-0.1-0.2-0.1c0,0.1-0.1,0.2-0.1,0.3
				c0,0.1-0.1,0.1-0.1,0.2c0,0.1,0,0.1-0.1,0.1c0,0,0,0.1,0,0.1c0,0,0,0,0,0h0C56.7,35.3,56.6,35.3,56.6,35.3z M57.5,33.7
				c0,0-0.1,0-0.1,0c0,0-0.1,0-0.1,0c0,0-0.1,0.1-0.1,0.3c0,0.1-0.1,0.2-0.1,0.3c0.1,0,0.1,0.1,0.2,0.1c0.1,0,0.1,0,0.2,0
				s0.1,0,0.1-0.1c0,0,0.1-0.1,0.1-0.1c0,0,0-0.1,0.1-0.1c0-0.1,0-0.1,0-0.2C57.7,33.8,57.6,33.8,57.5,33.7z"/>
			<path d="M60.1,34.4c0.1,0,0.1,0.1,0.1,0.1c0,0,0.1,0.1,0.1,0.1s0,0.1,0,0.1s0,0.1,0,0.1c-0.1,0.3-0.1,0.6-0.2,0.8
				c-0.1,0.2-0.1,0.4-0.1,0.5s-0.1,0.2-0.1,0.3c0,0.1,0,0.1-0.1,0.1c0,0,0,0-0.1,0c0,0,0,0-0.1,0c-0.1,0-0.1-0.1-0.1-0.1
				c-0.1-0.1-0.1-0.1-0.2-0.2c0-0.1-0.1-0.1-0.1-0.1c0-0.1,0-0.1,0-0.2c0-0.1,0-0.1,0.1-0.2c-0.2-0.1-0.3-0.2-0.5-0.3
				c-0.1,0.1-0.2,0.2-0.3,0.3c0,0-0.1,0-0.1,0c-0.1,0-0.1-0.1-0.1-0.1c0,0-0.1,0-0.1-0.1c0,0-0.1-0.1-0.1-0.1c0,0,0-0.1-0.1-0.1
				c0,0,0-0.1,0-0.1c0-0.1,0.1-0.1,0.1-0.2c0.1-0.1,0.1-0.2,0.2-0.3c0.1-0.1,0.2-0.2,0.3-0.3c0.1-0.1,0.2-0.2,0.3-0.3
				c0.1-0.1,0.2-0.2,0.3-0.2c0.1-0.1,0.1-0.1,0.2-0.1c0,0,0.1,0,0.1,0c0,0,0.1,0,0.1,0C59.9,34.3,59.9,34.3,60.1,34.4z M59.1,35.3
				c0.1,0.1,0.2,0.1,0.4,0.2c0.1-0.3,0.1-0.5,0.2-0.8C59.4,34.9,59.3,35,59.1,35.3z"/>
			<path d="M60.2,37.1C60.1,37,60,36.9,60,36.9c0-0.1,0-0.1,0.1-0.2c0,0,0.1-0.1,0.1-0.2c0.1-0.1,0.1-0.2,0.2-0.3
				c0.1-0.1,0.2-0.2,0.3-0.3c0.1-0.1,0.2-0.2,0.3-0.3c0.1-0.1,0.1-0.2,0.2-0.3c0.1-0.1,0.1-0.1,0.1-0.1c0,0,0.1,0,0.1,0
				c0.1,0.1,0.1,0.1,0.2,0.1c0.1,0.1,0.2,0.2,0.2,0.3c0,0.1,0,0.1-0.1,0.2c0,0,0,0,0,0c0,0,0,0,0,0c-0.4,0.4-0.6,0.6-1,1
				c0.2,0.2,0.3,0.3,0.5,0.4l0,0v0c-0.1,0.1-0.1,0.1-0.1,0.1c-0.1,0-0.1,0.1-0.1,0.1c-0.1,0-0.1,0-0.2-0.1
				C60.4,37.4,60.3,37.3,60.2,37.1z"/>
		</g>
	</g>
</g>
<g id="Layer_4">
	<g>
		<path d="M17.7,13.3V8.1c0-0.1,0.1-0.3,0.2-0.3L50.5,0c0.2,0,0.4,0.1,0.4,0.3v8.2c0,0.2-0.1,0.3-0.3,0.3l-32.5,4.8
			C17.9,13.6,17.7,13.4,17.7,13.3z M18.9,9v3c0,0.2,0.2,0.3,0.4,0.3l30.3-4.4c0.2,0,0.3-0.2,0.3-0.3V1.8c0-0.2-0.2-0.4-0.4-0.3
			L19.1,8.7C19,8.7,18.9,8.8,18.9,9z"/>
	</g>
</g>
<g id="Layer_5">
	<g>
		<g>
			<path d="M4.7,37.9c-0.2-0.3-0.5-0.3-0.8-0.1L3.7,38c-0.2,0.2-0.4,0.6-0.4,1v2.3c0,0.3-0.3,0.6-0.6,0.6H0.6
				c-0.3,0-0.6-0.3-0.6-0.6v-9.9c0-0.3,0.3-0.6,0.6-0.6h2.2c0.3,0,0.6,0.3,0.6,0.6V35c0,0.3,0,0.6,0,0.6c0,0,0.2-0.2,0.4-0.4l3.6-4
				c0.2-0.2,0.6-0.4,1-0.4h2.2c0.3,0,0.4,0.2,0.2,0.4l-3.9,4.1c-0.2,0.2-0.2,0.6-0.1,0.9l4,5.2c0.2,0.3,0.1,0.4-0.2,0.4H8.2
				c-0.3,0-0.7-0.2-0.9-0.4L4.7,37.9z"/>
			<path d="M24.8,36.6c-0.1-0.3-0.1-0.6-0.1-0.6c0,0-0.1,0.3-0.1,0.6l-0.9,4.6c-0.1,0.3-0.4,0.6-0.7,0.6h-3.4
				c-0.3,0-0.6-0.3-0.7-0.6l-2.1-9.7c-0.1-0.3,0.1-0.6,0.4-0.6h2.1c0.3,0,0.6,0.3,0.7,0.6l1.5,7.4c0.1,0.3,0.1,0.6,0.1,0.6
				c0,0,0.1-0.3,0.1-0.6l1.3-7.4c0.1-0.3,0.4-0.6,0.7-0.6h2c0.3,0,0.6,0.3,0.7,0.6l1.4,7.5c0.1,0.3,0.1,0.6,0.1,0.6
				c0,0,0.1-0.3,0.1-0.6l1.5-7.5c0.1-0.3,0.4-0.6,0.7-0.6h1.7c0.3,0,0.5,0.3,0.4,0.6l-2.1,9.7c-0.1,0.3-0.4,0.6-0.7,0.6h-3.2
				c-0.3,0-0.6-0.3-0.7-0.6L24.8,36.6z"/>
		</g>
	</g>
	<g>
		<g>
			<path d="M13,32.1c-0.3,0-0.6-0.3-0.6-0.6v-0.4c0-0.3,0.3-0.6,0.6-0.6h1.5c0.3,0,0.6,0.3,0.6,0.6v0.4c0,0.3-0.3,0.6-0.6,0.6H13z
				 M13,41.8c-0.3,0-0.6-0.3-0.6-0.6v-7.1c0-0.3,0.3-0.6,0.6-0.6h1.5c0.3,0,0.6,0.3,0.6,0.6v7.1c0,0.3-0.3,0.6-0.6,0.6H13z"/>
		</g>
	</g>
	<g>
		<g>
			<path d="M34.4,32.1c-0.3,0-0.6-0.3-0.6-0.6v-0.4c0-0.3,0.3-0.6,0.6-0.6H36c0.3,0,0.6,0.3,0.6,0.6v0.4c0,0.3-0.3,0.6-0.6,0.6H34.4
				z M34.4,41.8c-0.3,0-0.6-0.3-0.6-0.6v-7.1c0-0.3,0.3-0.6,0.6-0.6H36c0.3,0,0.6,0.3,0.6,0.6v7.1c0,0.3-0.3,0.6-0.6,0.6H34.4z"/>
		</g>
	</g>
	<g>
		<path d="M14.2,32.8h-1c-0.5,0-0.9-0.4-0.9-0.9v-0.6c0-0.5,0.4-0.9,0.9-0.9h1c0.5,0,0.9,0.4,0.9,0.9v0.6
			C15.1,32.4,14.7,32.8,14.2,32.8z"/>
	</g>
	<g>
		<path d="M35.7,32.8h-1c-0.5,0-0.9-0.4-0.9-0.9v-0.6c0-0.5,0.4-0.9,0.9-0.9h1c0.5,0,0.9,0.4,0.9,0.9v0.6
			C36.7,32.4,36.2,32.8,35.7,32.8z"/>
	</g>
	<g>
		<g>
			<path d="M15.9,45.3v-0.7l0,0l-0.2,0.6h-0.1l-0.2-0.6l0,0v0.7h-0.2v-1h0.3l0.2,0.6l0,0l0.2-0.6h0.3v1H15.9z"/>
			<path d="M16.9,45.3L16.9,45h-0.2l-0.1,0.2h-0.2l0.3-1h0.3l0.3,1H16.9z M16.7,44.9h0.2l-0.1-0.4l0,0L16.7,44.9z"/>
			<path d="M18,44.4L18,44.4l-0.2,0.1v-0.1c0-0.1-0.1-0.1-0.1-0.1c-0.1,0-0.1,0-0.1,0.1V45c0,0.1,0,0.1,0.1,0.1s0.1,0,0.1-0.1v-0.2
				h-0.1v-0.1H18V45c0,0.2-0.1,0.3-0.3,0.3c-0.2,0-0.3-0.1-0.3-0.3v-0.6c0-0.2,0.1-0.3,0.3-0.3C17.9,44.2,18,44.3,18,44.4z"/>
			<path d="M18.8,45.3L18.7,45h-0.2l-0.1,0.2h-0.2l0.3-1h0.3l0.3,1H18.8z M18.5,44.9h0.2l-0.1-0.4l0,0L18.5,44.9z"/>
			<path d="M19.4,45.1h0.4v0.1h-0.6v-0.1l0.4-0.8h-0.4v-0.1h0.6v0.1L19.4,45.1z"/>
			<path d="M20.1,45.3v-1h0.2v1H20.1z"/>
			<path d="M21.1,45.3l-0.3-0.7l0,0v0.7h-0.2v-1h0.2l0.3,0.6l0,0v-0.6h0.2v1H21.1z"/>
			<path d="M21.8,44.4v0.3h0.3v0.1h-0.3v0.3h0.4v0.1h-0.6v-1h0.6v0.1L21.8,44.4L21.8,44.4z"/>
		</g>
	</g>
</g>
</svg>
