<?xml version="1.0" encoding="utf-8"?>
<!-- Generator: Adobe Illustrator 19.1.0, SVG Export Plug-In . SVG Version: 6.00 Build 0)  -->
<svg version="1.1" id="Layer_1" xmlns="http://www.w3.org/2000/svg" xmlns:xlink="http://www.w3.org/1999/xlink" x="0px" y="0px"
	 viewBox="138 17.9 591.5 255.9" style="enable-background:new 138 17.9 591.5 255.9;" xml:space="preserve">
<style type="text/css">
	.st0{fill:#2A4ABD;}
	.st1{font-family:'ArialMT';}
	.st2{font-size:23.1px;}
	.st3{letter-spacing:0.7;}
	.st4{fill:#FF7164;}
</style>
<g>
	<path class="st0" d="M361,69.9h-14.8c-8.1,0-14.7-6.6-14.7-14.7v-9.6c0-8.1,6.6-14.7,14.7-14.7H361c8.1,0,14.7,6.6,14.7,14.7v9.6
		C375.7,63.3,369.1,69.9,361,69.9z"/>
	<path class="st0" d="M699.8,69.9H685c-8.1,0-14.7-6.6-14.7-14.7v-9.6c0-8.1,6.6-14.7,14.7-14.7h14.8c8.1,0,14.7,6.6,14.7,14.7v9.6
		C714.5,63.3,707.9,69.9,699.8,69.9z"/>
	<g>
		<g>
			<g>
				<path class="st0" d="M212.5,149.8c-2.9-4-8.2-4.4-11.8-0.9l-3.5,3.4c-3.5,3.5-6.4,10.4-6.4,15.3v35.8c0,4.9-4,9-9,9H147
					c-4.9,0-9-4.1-9-9v-157c0-4.9,4.1-9,9-9h34.8c5,0,9,4.1,9,9v57.8c0,5,0.2,9,0.5,9s3.2-3,6.5-6.7l56.1-62.4
					c3.3-3.7,10.1-6.7,15-6.7h34.8c4.9,0,6.2,2.9,2.8,6.6l-61.1,64.9c-3.4,3.6-3.7,9.8-0.7,13.7l62.6,82.6c3,3.9,1.4,7.2-3.6,7.2
					h-36.2c-4.9,0-11.4-3.3-14.3-7.2L212.5,149.8z"/>
				<path class="st0" d="M527.1,130.2c-1-4.9-2-8.8-2.2-8.8c-0.2,0-1.3,4-2.2,8.8L508,203.5c-1,4.9-5.8,8.8-10.8,8.8h-52.7
					c-5,0-9.8-4-10.9-8.8l-32.7-153c-1-4.8,2.2-8.8,7.1-8.8h32c5,0,9.8,4,10.8,8.8l23.6,116.9c1,4.9,2,8.8,2.2,8.8s1.2-4,2.1-8.9
					l21.1-116.8c0.9-4.9,5.7-8.9,10.6-8.9H542c5,0,9.7,4,10.6,8.8l22,117.8c0.9,4.9,1.9,8.8,2.1,8.8s1.2-4,2.2-8.8l22.8-117.8
					c0.9-4.9,5.8-8.8,10.7-8.8h26.9c5,0,8.2,4,7.1,8.8l-32.7,153c-1,4.8-5.9,8.8-10.9,8.8h-50.3c-5,0-9.8-4-10.8-8.8L527.1,130.2z"
					/>
			</g>
		</g>
		<g>
			<g>
				<path class="st0" d="M341.8,58.6c-4.9,0-9-4-9-9v-7.3c0-5,4.1-9,9-9H366c4.9,0,9,4.1,9,9v7.3c0,5-4.1,9-9,9H341.8z M341.8,212.3
					c-4.9,0-9-4.1-9-9V91.6c0-4.9,4.1-9,9-9H366c4.9,0,9,4.1,9,9v111.6c0,4.9-4.1,9-9,9L341.8,212.3L341.8,212.3z"/>
			</g>
		</g>
		<g>
			<g>
				<path class="st0" d="M679.6,58.6c-5,0-9-4-9-9v-7.3c0-5,4-9,9-9h24.2c5,0,9,4.1,9,9v7.3c0,5-4,9-9,9H679.6z M679.6,212.3
					c-5,0-9-4.1-9-9V91.6c0-4.9,4-9,9-9h24.2c5,0,9,4.1,9,9v111.6c0,4.9-4,9-9,9L679.6,212.3L679.6,212.3z"/>
			</g>
		</g>
		<text transform="matrix(1.3636 0 0 1 375.699 266.2965)" class="st0 st1 st2 st3">magazine</text>
	</g>
</g>
<g>
	<path class="st4" d="M376,56.9h-14.8c-8.1,0-14.7-6.6-14.7-14.7v-9.6c0-8.1,6.6-14.7,14.7-14.7H376c8.1,0,14.7,6.6,14.7,14.7v9.6
		C390.7,50.3,384.1,56.9,376,56.9z"/>
	<path class="st4" d="M714.8,56.9H700c-8.1,0-14.7-6.6-14.7-14.7v-9.6c0-8.1,6.6-14.7,14.7-14.7h14.8c8.1,0,14.7,6.6,14.7,14.7v9.6
		C729.5,50.3,722.9,56.9,714.8,56.9z"/>
	<g>
		<g>
			<g>
				<path class="st4" d="M227.5,136.8c-2.9-4-8.2-4.4-11.8-0.9l-3.5,3.4c-3.5,3.5-6.4,10.4-6.4,15.3v35.8c0,4.9-4,9-9,9H162
					c-4.9,0-9-4.1-9-9v-157c0-4.9,4.1-9,9-9h34.8c5,0,9,4.1,9,9v57.8c0,5,0.2,9,0.5,9s3.2-3,6.5-6.7l56.1-62.4
					c3.3-3.7,10.1-6.7,15-6.7h34.8c4.9,0,6.2,2.9,2.8,6.6l-61.1,64.9c-3.4,3.6-3.7,9.8-0.7,13.7l62.6,82.6c3,3.9,1.4,7.2-3.6,7.2
					h-36.2c-4.9,0-11.4-3.3-14.3-7.2L227.5,136.8z"/>
				<path class="st4" d="M542.1,117.2c-1-4.9-2-8.8-2.2-8.8c-0.2,0-1.3,4-2.2,8.8L523,190.5c-1,4.9-5.8,8.8-10.8,8.8h-52.7
					c-5,0-9.8-4-10.9-8.8l-32.7-153c-1-4.8,2.2-8.8,7.1-8.8h32c5,0,9.8,4,10.8,8.8l23.6,116.9c1,4.9,2,8.8,2.2,8.8s1.2-4,2.1-8.9
					l21.1-116.8c0.9-4.9,5.7-8.9,10.6-8.9H557c5,0,9.7,4,10.6,8.8l22,117.8c0.9,4.9,1.9,8.8,2.1,8.8s1.2-4,2.2-8.8l22.8-117.8
					c0.9-4.9,5.8-8.8,10.7-8.8h26.9c5,0,8.2,4,7.1,8.8l-32.7,153c-1,4.8-5.9,8.8-10.9,8.8h-50.3c-5,0-9.8-4-10.8-8.8L542.1,117.2z"
					/>
			</g>
		</g>
		<g>
			<g>
				<path class="st4" d="M356.8,45.6c-4.9,0-9-4-9-9v-7.3c0-5,4.1-9,9-9H381c4.9,0,9,4.1,9,9v7.3c0,5-4.1,9-9,9H356.8z M356.8,199.3
					c-4.9,0-9-4.1-9-9V78.6c0-4.9,4.1-9,9-9H381c4.9,0,9,4.1,9,9v111.6c0,4.9-4.1,9-9,9L356.8,199.3L356.8,199.3z"/>
			</g>
		</g>
		<g>
			<g>
				<path class="st4" d="M694.6,45.6c-5,0-9-4-9-9v-7.3c0-5,4-9,9-9h24.2c5,0,9,4.1,9,9v7.3c0,5-4,9-9,9H694.6z M694.6,199.3
					c-5,0-9-4.1-9-9V78.6c0-4.9,4-9,9-9h24.2c5,0,9,4.1,9,9v111.6c0,4.9-4,9-9,9L694.6,199.3L694.6,199.3z"/>
			</g>
		</g>
		<text transform="matrix(1.3636 0 0 1 390.699 253.2965)" class="st4 st1 st2 st3">magazine</text>
	</g>
</g>
</svg>
